<svg width="220" height="258" viewBox="0 0 220 258" fill="none" xmlns="http://www.w3.org/2000/svg">
<path d="M10 40C10 17.9086 27.9086 0 50 0H170C192.091 0 210 17.9086 210 40V160C210 182.091 192.091 200 170 200H50C27.9086 200 10 182.091 10 160V40Z" fill="#000080"/>
<path fill-rule="evenodd" clip-rule="evenodd" d="M146.101 134.865C146.101 144.438 143.878 150.967 139.433 154.453C134.987 157.938 125.916 159.69 112.219 159.709H73.6478V40.5031H110.836C124.516 40.5031 133.623 42.3093 138.159 45.9216C142.694 49.5339 144.962 56.0811 144.962 65.5634V75.9938C145.35 81.3239 143.801 86.615 140.598 90.8945C137.725 94.2539 132.846 96.5026 126.015 97.6675C128.842 97.5998 131.651 98.135 134.254 99.2375C136.857 100.34 139.196 101.984 141.113 104.061C144.529 107.854 146.101 113.652 146.101 121.373V134.865ZM101.16 98.3448V138.82H109.535C111.97 139.119 114.426 138.469 116.393 137.005C117.777 135.024 118.393 132.607 118.128 130.205V107.014C118.405 104.574 117.778 102.116 116.366 100.106C114.413 98.6318 111.965 97.9715 109.535 98.2636L101.16 98.3448ZM101.16 89.269H108.885C111.316 89.5779 113.772 88.9374 115.743 87.4809C117.104 85.5211 117.702 83.1316 117.423 80.7621V79.4345C117.423 76.1022 116.854 76.1835 115.715 74.9914C113.755 73.5123 111.293 72.8605 108.858 73.1763H101.16V89.269Z" fill="white"/>
<path fill-rule="evenodd" clip-rule="evenodd" d="M101.16 73.1763V89.269H108.885C111.316 89.578 113.772 88.9375 115.743 87.4809C117.104 85.5212 117.702 83.1316 117.423 80.7621V79.4346C117.423 76.1022 116.854 76.1835 115.715 74.9915C113.756 73.5123 111.293 72.8606 108.858 73.1763H101.16Z" fill="#F57418"/>
<path fill-rule="evenodd" clip-rule="evenodd" d="M101.16 98.3449V138.82H109.535C111.97 139.119 114.426 138.469 116.393 137.005C117.777 135.024 118.393 132.607 118.128 130.205V107.014C118.405 104.574 117.778 102.116 116.366 100.106C114.413 98.6318 111.965 97.9715 109.535 98.2636L101.16 98.3449Z" fill="#0E7D04"/>
<path d="M214.99 200H5C2.23858 200 0 202.239 0 205V253C0 255.761 2.23857 258 5 258H214.99C217.752 258 219.99 255.761 219.99 253V205C219.99 202.239 217.752 200 214.99 200Z" fill="white"/>
<path fill-rule="evenodd" clip-rule="evenodd" d="M185.951 242.682V241.001C185.552 241.69 184.955 242.241 184.239 242.585C183.354 242.93 182.408 243.089 181.46 243.054C179.695 243.054 178.469 242.638 177.78 241.806C177.092 240.975 176.745 239.501 176.739 237.384V234.836C176.623 233.439 177.049 232.051 177.93 230.962C178.434 230.508 179.025 230.162 179.667 229.946C180.309 229.73 180.988 229.648 181.663 229.706C182.378 229.703 183.089 229.81 183.771 230.024C184.438 230.209 185.068 230.508 185.633 230.909V227.822C185.688 227.248 185.587 226.671 185.342 226.15C185.19 225.992 185.002 225.874 184.795 225.803C184.588 225.732 184.367 225.712 184.151 225.743C183.942 225.714 183.73 225.736 183.532 225.806C183.334 225.877 183.156 225.995 183.013 226.15C182.78 226.674 182.686 227.25 182.739 227.822H177.383V226.309C177.383 224.398 177.851 223.089 178.777 222.399C179.704 221.709 181.636 221.364 184.548 221.364C187.46 221.364 189.348 221.709 190.283 222.399C191.218 223.089 191.677 224.398 191.677 226.309V242.682H185.951ZM185.633 237.109V234.898C185.645 234.705 185.617 234.512 185.55 234.331C185.483 234.149 185.379 233.984 185.245 233.845C185.097 233.711 184.925 233.608 184.737 233.541C184.549 233.474 184.35 233.445 184.151 233.456C183.954 233.444 183.758 233.473 183.573 233.54C183.388 233.606 183.218 233.711 183.074 233.845C182.943 233.986 182.842 234.151 182.777 234.332C182.711 234.513 182.684 234.706 182.695 234.898V237.109C182.683 237.304 182.711 237.499 182.776 237.683C182.841 237.867 182.943 238.036 183.074 238.18C183.22 238.31 183.391 238.41 183.575 238.474C183.76 238.538 183.956 238.564 184.151 238.551C184.55 238.575 184.942 238.442 185.245 238.18C185.38 238.038 185.484 237.87 185.551 237.685C185.618 237.501 185.646 237.305 185.633 237.109ZM173.422 242.682H167.378V221.727H173.422V242.682ZM167.378 212.483H173.422V217.313H167.378V212.483ZM154.487 228.122V236.349C154.427 236.926 154.531 237.508 154.787 238.029C154.937 238.181 155.121 238.296 155.323 238.365C155.525 238.434 155.74 238.455 155.952 238.427C156.175 238.457 156.402 238.436 156.616 238.366C156.83 238.295 157.025 238.177 157.187 238.02C157.453 237.506 157.564 236.925 157.505 236.349V228.122C157.563 227.544 157.456 226.961 157.196 226.442C156.854 226.172 156.431 226.025 155.996 226.025C155.561 226.025 155.138 226.172 154.796 226.442C154.535 226.961 154.428 227.544 154.487 228.122ZM163.549 212.483V242.682H157.743V240.028C157.199 240.971 156.444 241.773 155.537 242.372C154.692 242.847 153.735 243.086 152.767 243.062C152.098 243.132 151.424 243.03 150.806 242.766C150.188 242.501 149.648 242.082 149.237 241.55C148.549 240.541 148.205 238.772 148.205 236.242V228.158C148.205 225.669 148.561 223.9 149.273 222.85C149.694 222.316 150.243 221.896 150.869 221.63C151.496 221.364 152.178 221.261 152.855 221.329C153.812 221.296 154.762 221.506 155.616 221.939C156.402 222.38 157.045 223.037 157.469 223.832V212.483H163.549ZM129.588 242.682V221.727H135.226V224.434C135.718 223.483 136.44 222.671 137.326 222.072C138.232 221.572 139.257 221.327 140.29 221.364C141.923 221.364 143.061 221.807 143.714 222.709C144.367 223.611 144.684 225.283 144.684 227.733V242.682H138.693V228.069C138.748 227.54 138.634 227.008 138.367 226.548C138.211 226.399 138.024 226.287 137.82 226.218C137.615 226.149 137.399 226.126 137.185 226.15C136.97 226.124 136.753 226.147 136.549 226.215C136.344 226.284 136.158 226.398 136.002 226.548C135.731 227.006 135.614 227.539 135.667 228.069V242.682H129.588ZM125.335 242.682H118.4V213.014H125.3L125.335 242.682ZM105.783 226.309H103.947V221.727H105.783V216.163H111.862V221.727H115.294V226.309H111.862V236.083C111.833 236.4 111.868 236.72 111.963 237.024C112.058 237.327 112.213 237.609 112.418 237.852C112.66 238.058 112.941 238.213 113.244 238.307C113.547 238.401 113.867 238.433 114.182 238.401H114.632H114.932V242.894C114.306 242.983 113.724 243.062 113.168 243.107C112.612 243.151 112.135 243.186 111.677 243.186C109.388 243.186 107.833 242.765 107.009 241.921C106.186 241.078 105.768 239.359 105.756 236.764L105.783 226.309ZM101.292 242.682H95.2477V221.727H101.292V242.682ZM95.2477 212.483H101.292V217.313H95.2477V212.483ZM82.3569 228.122V236.349C82.2973 236.926 82.4013 237.508 82.6569 238.029C82.8073 238.181 82.9907 238.296 83.1927 238.365C83.3948 238.434 83.61 238.455 83.8216 238.427C84.0448 238.457 84.2718 238.436 84.4858 238.366C84.6997 238.295 84.895 238.177 85.0568 238.02C85.323 237.506 85.4334 236.925 85.3745 236.349V228.122C85.429 227.544 85.322 226.962 85.0657 226.442C84.9115 226.284 84.7228 226.164 84.5146 226.092C84.3063 226.02 84.0842 225.997 83.8657 226.026C83.6459 225.997 83.4224 226.02 83.2127 226.092C83.003 226.164 82.8128 226.284 82.6569 226.442C82.4044 226.963 82.3006 227.545 82.3569 228.122ZM91.4184 212.483V242.682H85.6127V240.028C85.063 240.969 84.3054 241.771 83.3981 242.372C82.5563 242.847 81.6021 243.086 80.6364 243.062C79.9682 243.133 79.2931 243.031 78.6753 242.767C78.0575 242.502 77.5176 242.083 77.1071 241.55C76.4189 240.541 76.0748 238.772 76.0748 236.242V228.158C76.0748 225.669 76.4306 223.9 77.1424 222.85C77.5627 222.316 78.1104 221.897 78.7349 221.631C79.3594 221.365 80.0406 221.261 80.7158 221.329C81.6757 221.297 82.6282 221.507 83.4863 221.939C84.2695 222.383 84.9118 223.039 85.3392 223.832V212.483H91.4184ZM72.4308 242.682H66.3427V212.483H72.4308V242.682ZM62.4605 242.682H56.4165V221.727H62.4605V242.682ZM56.4165 212.483H62.4605V217.313H56.4165V212.483ZM52.7019 221.727V242.682H47.0198V240.028C46.5495 240.979 45.8296 241.783 44.9375 242.355C44.0281 242.855 43.0007 243.1 41.9641 243.062C40.3317 243.062 39.1847 242.611 38.5318 241.718C37.8789 240.824 37.5612 239.144 37.5612 236.676V221.727H43.6405V236.349C43.5881 236.874 43.6991 237.402 43.9581 237.861C44.1062 238.012 44.2863 238.126 44.485 238.197C44.6837 238.267 44.8957 238.292 45.1051 238.268C45.3221 238.293 45.5417 238.268 45.7479 238.196C45.9541 238.124 46.1415 238.007 46.2963 237.852C46.556 237.396 46.67 236.872 46.6227 236.349V221.727H52.7019ZM34.0408 236.499C34.0408 238.878 33.4937 240.497 32.382 241.373C31.2703 242.249 29.0203 242.682 25.641 242.682H16.0501V213.014H25.2704C28.6586 213.014 30.9144 213.459 32.0379 214.35C33.1614 215.24 33.7261 216.868 33.7319 219.233V221.833C33.8273 223.159 33.4419 224.475 32.6467 225.539C31.6724 226.499 30.3979 227.093 29.038 227.22C29.7387 227.203 30.4349 227.337 31.08 227.611C31.7252 227.886 32.3044 228.295 32.779 228.812C33.6883 230.066 34.1259 231.601 34.0143 233.147L34.0408 236.499ZM22.897 229.75V237.49H24.9793C25.5806 237.56 26.186 237.398 26.6733 237.039C27.0175 236.544 27.1683 235.939 27.0969 235.34V231.908C27.1607 231.304 26.997 230.699 26.6381 230.21C26.1575 229.842 25.5529 229.677 24.9528 229.75H22.897ZM22.897 225.168H24.8116C25.4147 225.243 26.0236 225.085 26.5145 224.726C26.8553 224.236 27.0059 223.638 26.938 223.045V220.391C27.004 219.795 26.8536 219.196 26.5145 218.702C26.0268 218.336 25.4162 218.174 24.8116 218.251H22.897V225.168Z" fill="#000080"/>
<path fill-rule="evenodd" clip-rule="evenodd" d="M205.036 224.725H194.88V221.992H196.195C195.731 221.75 195.334 221.398 195.039 220.966C194.8 220.534 194.684 220.044 194.704 219.551C194.68 219.073 194.807 218.6 195.065 218.197C195.189 218.029 195.345 217.887 195.523 217.779C195.702 217.671 195.9 217.6 196.106 217.569C195.671 217.335 195.3 216.994 195.03 216.579C194.798 216.157 194.686 215.68 194.704 215.199C194.668 214.89 194.708 214.577 194.82 214.287C194.932 213.998 195.113 213.74 195.348 213.536C196.102 213.151 196.949 212.989 197.792 213.067H205.036V215.995H197.977C197.721 215.972 197.463 216.024 197.236 216.145C197.166 216.219 197.113 216.307 197.081 216.403C197.049 216.499 197.039 216.602 197.051 216.703C197.039 216.805 197.05 216.908 197.082 217.006C197.114 217.103 197.166 217.193 197.236 217.269C197.426 217.394 197.653 217.45 197.88 217.428H205.062V220.365H198.003C197.746 220.339 197.487 220.395 197.262 220.524C197.192 220.597 197.139 220.685 197.107 220.781C197.075 220.878 197.064 220.98 197.077 221.081C197.065 221.187 197.077 221.295 197.112 221.396C197.148 221.497 197.205 221.589 197.28 221.665C197.501 221.787 197.752 221.842 198.003 221.824H205.062L205.036 224.725ZM198.692 234.013C197.13 234.013 196.045 233.757 195.506 233.217C194.968 232.678 194.677 231.669 194.677 230.157C194.677 228.644 194.951 227.636 195.506 227.105C196.062 226.574 197.13 226.3 198.692 226.3H201.206C202.75 226.3 203.809 226.565 204.356 227.096C204.903 227.627 205.186 228.653 205.186 230.157C205.186 231.66 204.912 232.686 204.365 233.217C203.818 233.748 202.759 234.013 201.206 234.013H198.692ZM197.951 230.997H201.939C202.217 231.023 202.497 230.965 202.742 230.829C202.819 230.737 202.878 230.629 202.912 230.514C202.947 230.398 202.958 230.277 202.944 230.157C202.959 230.041 202.948 229.923 202.913 229.812C202.878 229.7 202.82 229.598 202.742 229.511C202.498 229.371 202.217 229.312 201.939 229.343H197.951C197.67 229.314 197.388 229.369 197.139 229.502C197.003 229.697 196.931 229.928 196.931 230.165C196.931 230.403 197.003 230.634 197.139 230.829C197.393 230.975 197.686 231.037 197.977 231.006L197.951 230.997ZM201.003 235.313H202.036C202.926 235.211 203.82 235.459 204.533 236.003C205.062 236.78 205.294 237.723 205.186 238.657C205.186 240.179 204.912 241.205 204.356 241.735C203.8 242.266 202.75 242.54 201.206 242.54H198.692C197.139 242.54 196.045 242.266 195.524 241.735C195.004 241.205 194.686 240.17 194.686 238.657C194.581 237.723 194.813 236.782 195.339 236.003C196.054 235.457 196.952 235.21 197.845 235.313H198.339V238.082H197.959C197.68 238.056 197.399 238.108 197.148 238.233C197.072 238.303 197.015 238.39 196.98 238.487C196.944 238.584 196.932 238.687 196.945 238.79C196.931 238.896 196.942 239.004 196.977 239.106C197.012 239.207 197.071 239.299 197.148 239.374C197.4 239.494 197.681 239.543 197.959 239.515H201.947C202.223 239.543 202.501 239.494 202.75 239.374C202.829 239.3 202.888 239.209 202.924 239.107C202.959 239.005 202.969 238.896 202.953 238.79C202.968 238.687 202.957 238.583 202.922 238.486C202.886 238.388 202.827 238.301 202.75 238.233C202.502 238.108 202.224 238.055 201.947 238.082H201.012L201.003 235.313ZM205.009 247.158H201.833V244.23H205.009V247.158Z" fill="#000080"/>
</svg>
