<svg width="152" height="33" viewBox="0 0 152 33" fill="none" xmlns="http://www.w3.org/2000/svg">
<g clip-path="url(#clip0_1301_7312)">
<path d="M33.3632 0.467041H0.44989V31.6133H33.3632V0.467041Z" fill="white"/>
<path fill-rule="evenodd" clip-rule="evenodd" d="M0 0.012207H33.8131V32.0677H0V0.012207ZM0.899758 0.921443V31.1585H32.9133V0.921443H0.899758Z" fill="white"/>
<path fill-rule="evenodd" clip-rule="evenodd" d="M23.1912 22.1367C23.1912 23.8151 22.8042 24.9599 22.0302 25.571C21.2546 26.1886 19.6799 26.5211 17.3296 26.5211H10.6266V5.56372H17.0758C19.448 5.56372 21.0274 5.88039 21.8139 6.51374C22.6005 7.14708 22.9938 8.29502 22.9938 9.95754V11.7863C23.0611 12.7209 22.7923 13.6485 22.237 14.3989C21.7387 14.9879 20.8926 15.3821 19.7081 15.5864C20.1982 15.5748 20.6852 15.6688 21.1366 15.8621C21.588 16.0554 21.9936 16.3435 22.3263 16.7074C22.9045 17.3962 23.1912 18.4127 23.1912 19.7665V22.1367ZM15.3977 15.7336V22.8302H16.8548C17.2755 22.8818 17.6996 22.7679 18.0394 22.512C18.2793 22.1645 18.3862 21.7409 18.3402 21.3197V17.2537C18.3847 16.8305 18.2762 16.4053 18.0347 16.0566C17.6975 15.7989 17.2746 15.6832 16.8548 15.7336H15.3977ZM15.3977 14.1424H16.7373C17.1589 14.1965 17.5849 14.0842 17.9266 13.8289C18.1626 13.4852 18.2663 13.0663 18.218 12.6508V12.4181C18.218 11.8338 18.1193 11.8481 17.9219 11.6391C17.582 11.3797 17.155 11.2655 16.7326 11.3208H15.3977V14.1424Z" fill="#000080"/>
<path fill-rule="evenodd" clip-rule="evenodd" d="M15.3976 11.321V14.1426H16.7373C17.1589 14.1967 17.5849 14.0844 17.9265 13.8291C18.1626 13.4855 18.2663 13.0665 18.218 12.6511V12.4183C18.218 11.834 18.1193 11.8483 17.9218 11.6393C17.582 11.3799 17.155 11.2657 16.7326 11.321H15.3976Z" fill="#F57418"/>
<path fill-rule="evenodd" clip-rule="evenodd" d="M15.3976 15.7337V22.8304H16.8548C17.2755 22.8819 17.6996 22.768 18.0394 22.5121C18.2793 22.1647 18.3862 21.741 18.3402 21.3198V17.2538C18.3847 16.8306 18.2762 16.4054 18.0347 16.0567C17.6975 15.7991 17.2746 15.6833 16.8548 15.7337H15.3976Z" fill="#0E7D04"/>
<path d="M151.349 0.467041H34.1544V31.6133H151.349V0.467041Z" fill="#000080"/>
<path fill-rule="evenodd" clip-rule="evenodd" d="M33.6923 0H151.811V32.0802H33.6923V0ZM34.6165 0.933978V31.1463H150.887V0.933978H34.6165Z" fill="white"/>
<path fill-rule="evenodd" clip-rule="evenodd" d="M143.038 14.38H137.628V12.9122H138.328C138.08 12.7837 137.869 12.5942 137.712 12.3612C137.585 12.1291 137.524 11.8663 137.534 11.6012C137.521 11.3445 137.589 11.0904 137.727 10.8744C137.791 10.783 137.874 10.706 137.969 10.648C138.065 10.59 138.171 10.5523 138.281 10.5372C138.048 10.4125 137.851 10.2293 137.708 10.0052C137.584 9.77868 137.524 9.52253 137.534 9.26416C137.515 9.09833 137.536 8.93031 137.596 8.7747C137.656 8.61908 137.752 8.48055 137.877 8.37114C138.279 8.16472 138.73 8.07744 139.179 8.11939H143.038V9.69166H139.278C139.141 9.67806 139.004 9.70619 138.883 9.77241C138.846 9.81188 138.818 9.85917 138.8 9.9109C138.783 9.96262 138.778 10.0175 138.784 10.0717C138.778 10.1265 138.784 10.1821 138.801 10.2345C138.818 10.287 138.846 10.3351 138.883 10.3757C138.984 10.4429 139.105 10.4731 139.226 10.4612H143.052V12.0382H139.292C139.155 12.0232 139.016 12.0532 138.897 12.1237C138.86 12.163 138.831 12.2102 138.814 12.262C138.797 12.3138 138.792 12.3688 138.798 12.423C138.792 12.4801 138.798 12.5378 138.817 12.5921C138.836 12.6463 138.866 12.6957 138.906 12.7365C139.024 12.8033 139.158 12.8331 139.292 12.822H143.052L143.038 14.38ZM139.659 19.3723C138.827 19.3723 138.248 19.2346 137.966 18.9448C137.684 18.6551 137.524 18.1135 137.524 17.3013C137.524 16.489 137.67 15.9475 137.966 15.6625C138.262 15.3775 138.827 15.2303 139.659 15.2303H140.998C141.825 15.2303 142.385 15.3728 142.681 15.6578C142.977 15.9428 143.123 16.4938 143.123 17.3013C143.123 18.1088 142.977 18.6598 142.686 18.9448C142.394 19.2298 141.83 19.3723 140.998 19.3723H139.659ZM139.268 17.7525H141.393C141.541 17.7662 141.69 17.7348 141.821 17.6623C141.862 17.6128 141.893 17.5552 141.912 17.4931C141.93 17.431 141.936 17.3657 141.929 17.3013C141.937 17.239 141.931 17.1758 141.912 17.116C141.894 17.0562 141.862 17.0011 141.821 16.9545C141.691 16.88 141.541 16.8485 141.393 16.8643H139.268C139.119 16.8488 138.968 16.8786 138.836 16.9498C138.793 16.9967 138.762 17.0526 138.743 17.1133C138.724 17.1741 138.719 17.2383 138.728 17.3013C138.72 17.3657 138.726 17.431 138.745 17.4931C138.763 17.5552 138.794 17.6128 138.836 17.6623C138.971 17.737 139.125 17.7685 139.278 17.7525H139.268ZM140.895 20.0706H141.445C141.917 20.0156 142.393 20.1484 142.77 20.4411C143.055 20.8573 143.18 21.3636 143.123 21.8661C143.123 22.6831 142.972 23.2341 142.681 23.5191C142.39 23.8041 141.825 23.9514 140.998 23.9514H139.659C138.831 23.9514 138.248 23.8041 137.971 23.5191C137.694 23.2341 137.524 22.6784 137.524 21.8661C137.467 21.3643 137.59 20.8582 137.872 20.4411C138.251 20.1477 138.728 20.0148 139.203 20.0706H139.466V21.5526H139.268C139.12 21.5386 138.97 21.5666 138.836 21.6334C138.795 21.6704 138.764 21.7171 138.745 21.7693C138.726 21.8215 138.72 21.8776 138.728 21.9326C138.719 21.9898 138.725 22.0482 138.743 22.1029C138.762 22.1575 138.794 22.2067 138.836 22.2461C138.971 22.3108 139.12 22.3371 139.268 22.3221H141.393C141.54 22.3367 141.688 22.3104 141.821 22.2461C141.862 22.206 141.893 22.1567 141.911 22.1023C141.93 22.0479 141.936 21.9898 141.929 21.9326C141.935 21.8776 141.929 21.8219 141.91 21.7699C141.891 21.7179 141.861 21.6711 141.821 21.6334C141.688 21.567 141.54 21.539 141.393 21.5526H140.895V20.0706ZM143.029 26.4309H141.351V24.8539H143.038L143.029 26.4309Z" fill="white"/>
<path fill-rule="evenodd" clip-rule="evenodd" d="M132.871 24.0227V23.1392C132.657 23.5076 132.34 23.8035 131.959 23.9894C131.488 24.1746 130.984 24.2603 130.478 24.2412C129.538 24.2412 128.885 24.0179 128.518 23.5714C128.142 23.1297 127.959 22.3364 127.959 21.1964V19.8141C127.898 19.0632 128.127 18.3176 128.598 17.7336C128.866 17.4903 129.18 17.3049 129.521 17.1889C129.862 17.0729 130.223 17.0287 130.582 17.0591C130.964 17.0572 131.345 17.1148 131.71 17.2301C132.064 17.3294 132.398 17.4901 132.697 17.7051V16.0425C132.727 15.7351 132.675 15.4251 132.547 15.1448C132.465 15.0603 132.366 14.9965 132.255 14.9585C132.145 14.9205 132.027 14.9095 131.912 14.9263C131.801 14.9102 131.688 14.9217 131.582 14.9598C131.476 14.9979 131.382 15.0614 131.306 15.1448C131.18 15.4259 131.128 15.7352 131.155 16.0425H128.307V15.2303C128.307 14.2043 128.551 13.5012 129.049 13.1307C129.548 12.7602 130.568 12.575 132.119 12.575C133.67 12.575 134.681 12.7602 135.174 13.1307C135.668 13.5012 135.898 14.2043 135.898 15.2303V24.0227H132.871ZM132.697 21.0301V19.8141C132.704 19.7108 132.69 19.6072 132.655 19.5098C132.62 19.4125 132.566 19.3236 132.495 19.2488C132.416 19.1768 132.324 19.1213 132.224 19.0854C132.124 19.0495 132.018 19.0341 131.912 19.0398C131.807 19.0332 131.702 19.0483 131.604 19.0842C131.505 19.1202 131.415 19.1762 131.339 19.2488C131.268 19.3236 131.213 19.4125 131.178 19.5098C131.143 19.6072 131.129 19.7108 131.136 19.8141V21.0159C131.129 21.1206 131.143 21.2257 131.178 21.3246C131.213 21.4236 131.267 21.5141 131.339 21.5906C131.416 21.6609 131.507 21.7147 131.605 21.749C131.704 21.7833 131.808 21.7972 131.912 21.7901C132.125 21.8028 132.334 21.7313 132.495 21.5906C132.564 21.5158 132.618 21.4276 132.653 21.3313C132.687 21.2349 132.702 21.1325 132.697 21.0301ZM126.196 24.0227H122.976V12.7745H126.196V24.0227ZM122.976 7.80591H126.196V10.3995H122.976V7.80591ZM116.104 16.204V20.6216C116.075 20.9316 116.13 21.2437 116.264 21.5241C116.345 21.6052 116.444 21.6665 116.552 21.7035C116.66 21.7405 116.776 21.7523 116.889 21.7379C117.008 21.7537 117.129 21.7423 117.243 21.7044C117.357 21.6666 117.461 21.6034 117.547 21.5194C117.686 21.2423 117.745 20.931 117.716 20.6216V16.204C117.745 15.8936 117.688 15.5811 117.552 15.3015C117.368 15.1571 117.143 15.0786 116.91 15.0786C116.678 15.0786 116.452 15.1571 116.269 15.3015C116.132 15.5811 116.075 15.8936 116.104 16.204ZM120.936 7.80591V24.0227H117.843V22.5976C117.551 23.1035 117.147 23.5343 116.663 23.8564C116.213 24.1115 115.703 24.2395 115.187 24.2269C114.836 24.2599 114.481 24.2023 114.157 24.0594C113.833 23.9165 113.551 23.6931 113.335 23.4099C112.969 22.8684 112.785 21.9184 112.785 20.5599V16.223C112.785 14.8899 112.975 13.9398 113.354 13.373C113.579 13.0859 113.871 12.8605 114.205 12.7178C114.538 12.575 114.902 12.5193 115.263 12.556C115.772 12.5394 116.278 12.6521 116.734 12.8837C117.152 13.1204 117.495 13.4731 117.721 13.9003V7.80591H120.936ZM102.839 24.0227V12.7697H105.847V14.2233C106.109 13.7126 106.494 13.2765 106.966 12.955C107.449 12.6867 107.995 12.5554 108.546 12.575C109.41 12.575 110.021 12.8125 110.369 13.297C110.717 13.7815 110.886 14.6793 110.886 15.995V24.0227H107.695V16.1755C107.722 15.8916 107.661 15.6062 107.521 15.3585C107.338 15.2202 107.117 15.1454 106.889 15.1454C106.661 15.1454 106.439 15.2202 106.256 15.3585C106.116 15.6062 106.056 15.8916 106.082 16.1755V24.0227H102.839ZM100.578 24.0227H96.8834V8.09091H100.559L100.578 24.0227ZM90.1616 15.2303H89.1839V12.7697H90.1616V9.78194H93.405V12.7697H95.2288V15.2303H93.405V20.4554C93.3753 20.6238 93.3862 20.7969 93.4368 20.9602C93.4873 21.1234 93.5761 21.2719 93.6956 21.3931C93.8151 21.5143 93.9617 21.6046 94.123 21.6563C94.2844 21.7081 94.4557 21.7198 94.6224 21.6904H94.8669H95.0267V24.1034C94.6976 24.1509 94.3874 24.1937 94.0866 24.2174C93.7857 24.2412 93.5366 24.2602 93.2922 24.2602C92.0747 24.2602 91.2427 24.0322 90.8056 23.5809C90.3684 23.1297 90.1381 22.2034 90.1381 20.8116L90.1616 15.2303ZM87.7643 24.0227H84.5491V12.7745H87.7643V24.0227ZM84.5491 7.80591H87.7643V10.3995H84.5491V7.80591ZM77.6816 16.204V20.6216C77.6499 20.9317 77.7053 21.2445 77.8414 21.5241C77.9214 21.606 78.019 21.6679 78.1267 21.705C78.2344 21.7421 78.3492 21.7533 78.4619 21.7379C78.5801 21.7547 78.7006 21.7438 78.8139 21.7059C78.9272 21.668 79.0304 21.6042 79.1153 21.5194C79.2614 21.2447 79.322 20.9317 79.2892 20.6216V16.204C79.3182 15.8936 79.2613 15.5811 79.1247 15.3015C79.0426 15.2168 78.942 15.1525 78.8311 15.1137C78.7201 15.075 78.6018 15.0628 78.4854 15.0783C78.3683 15.0628 78.2492 15.0749 78.1375 15.1136C78.0258 15.1524 77.9245 15.2167 77.8414 15.3015C77.7069 15.5818 77.6516 15.8941 77.6816 16.204ZM82.5091 7.80591V24.0227H79.4161V22.5976C79.1241 23.1035 78.7203 23.5343 78.2363 23.8564C77.7861 24.1115 77.2763 24.2395 76.7603 24.2269C76.4081 24.2613 76.053 24.2048 75.7283 24.0627C75.4036 23.9207 75.1198 23.6977 74.9036 23.4147C74.5369 22.8731 74.3536 21.9231 74.3536 20.5646V16.223C74.3536 14.8899 74.5432 13.9398 74.9224 13.373C75.1463 13.0863 75.4381 12.8611 75.7708 12.7183C76.1035 12.5755 76.4664 12.5197 76.8261 12.556C77.3375 12.5388 77.8449 12.6515 78.3021 12.8837C78.7193 13.1218 79.0615 13.4742 79.2892 13.9003V7.80591H82.5091ZM72.3935 24.0227H69.1501V7.80591H72.3935V24.0227ZM67.0818 24.0227H63.8619V12.7745H67.0818V24.0227ZM63.8619 7.80591H67.0818V10.3995H63.8619V7.80591ZM61.883 12.7697V24.0227H58.8559V22.5976C58.6053 23.1082 58.2218 23.5401 57.7465 23.8469C57.262 24.1156 56.7147 24.2469 56.1624 24.2269C55.2881 24.2269 54.6818 23.9847 54.3339 23.5049C53.9861 23.0252 53.8168 22.1226 53.8168 20.7974V12.7697H57.0555V20.6216C57.0276 20.9035 57.0868 21.1873 57.2248 21.4339C57.3044 21.515 57.4011 21.5768 57.5078 21.6146C57.6145 21.6525 57.7282 21.6654 57.8405 21.6524C57.9553 21.6649 58.0715 21.6514 58.1804 21.6127C58.2894 21.5741 58.3885 21.5114 58.4704 21.4291C58.6108 21.1851 58.6717 20.9026 58.6443 20.6216V12.7697H61.883ZM51.9413 20.7024C51.9413 21.9801 51.6452 22.8494 51.0576 23.3197C50.47 23.7899 49.2667 24.0227 47.4664 24.0227H42.3569V8.09091H47.269C49.074 8.09091 50.2758 8.33 50.8743 8.80817C51.4728 9.28635 51.7737 10.1604 51.7768 11.4302V12.8267C51.8276 13.5389 51.6223 14.2456 51.1986 14.817C50.6781 15.333 49.9974 15.6518 49.2714 15.7195C49.6454 15.7101 50.0171 15.7815 50.3617 15.929C50.7062 16.0764 51.0156 16.2965 51.2691 16.5745C51.7535 17.2476 51.9867 18.0721 51.9272 18.9021L51.9413 20.7024ZM46.0045 17.0781V21.2391H47.1138C47.4341 21.2758 47.7563 21.1893 48.0164 20.9969C48.1994 20.7308 48.2812 20.407 48.2467 20.0849V18.2371C48.2811 17.9143 48.1975 17.5899 48.0116 17.3251C47.7556 17.1277 47.4335 17.0391 47.1138 17.0781H46.0045ZM46.0045 14.6175H47.0245C47.3458 14.6577 47.6702 14.5728 47.9317 14.38C48.1133 14.117 48.1935 13.7961 48.1574 13.4775V12.0525C48.1925 11.7325 48.1124 11.4104 47.9317 11.1452C47.6719 10.9485 47.3466 10.8616 47.0245 10.903H46.0045V14.6175Z" fill="white"/>
</g>
<defs>
<clipPath id="clip0_1301_7312">
<rect width="152" height="32.1538" fill="white"/>
</clipPath>
</defs>
</svg>
